# xmcd
#
# Track frame offsets: 
#        150
#        17459
#        37178
#        59144
#        77395
#        107838
#        125740
#        145814
#        167783
#        194277
#        210566
#        233321
#        251727
#        279411
#
# Disc length: 4041 seconds
#
# Revision: 0
# Processed by: cddbd v1.5.2PL0 Copyright (c) Steve Scherf et al.
# Submitted via: ExactAudioCopy v0.95b4
#
DISCID=c20fc70e
DTITLE=Taylor Swift - Speak Now (Deluxe Edition)
DYEAR=2010
DGENRE=Country
TTITLE0=Mine
TTITLE1=Sparks Fly
TTITLE2=Back To December
TTITLE3=Speak Now
TTITLE4=Dear John
TTITLE5=Mean
TTITLE6=The Story Of Us
TTITLE7=Never Grow Up
TTITLE8=Enchanted
TTITLE9=Better Than Revenge
TTITLE10=Innocent
TTITLE11=Haunted
TTITLE12=Last Kiss
TTITLE13=Long Live
EXTD=
EXTT0=
EXTT1=
EXTT2=
EXTT3=
EXTT4=
EXTT5=
EXTT6=
EXTT7=
EXTT8=
EXTT9=
EXTT10=
EXTT11=
EXTT12=
EXTT13=
PLAYORDER=
